<?xml version="1.0" encoding="UTF-8"?>
<svg xmlns="http://www.w3.org/2000/svg" xmlns:xlink="http://www.w3.org/1999/xlink" viewBox="87 139 1017 564" width="1017" height="564">
<path fill-rule="evenodd" fill="rgb(38.822937%, 17.64679%, 56.863403%)" fill-opacity="1" stroke-width="0.5" stroke-linecap="butt" stroke-linejoin="miter" stroke="rgb(38.822937%, 17.64679%, 56.863403%)" stroke-opacity="1" stroke-miterlimit="2.613126" d="M 712.725605 249.125443 L 92.417638 249.125443 L 92.417638 140.127339 L 712.725605 140.127339 Z M 126.801688 186.594067 L 122.178853 186.594067 L 122.178853 162.655359 L 110.338453 162.655359 L 110.338453 225.26489 L 126.727442 225.26489 C 133.565956 225.26489 138.704611 223.697893 142.143407 220.563899 C 145.586111 217.433814 147.309416 212.646854 147.309416 206.203019 C 147.309416 202.166342 146.539595 198.809608 144.996045 196.12891 C 143.456402 193.448213 141.025798 191.173918 137.704234 189.306027 L 150.412148 162.655359 L 137.055552 162.655359 Z M 122.178853 196.804946 L 127.161199 196.804946 C 129.810635 196.804946 131.795758 197.559137 133.120476 199.06361 C 134.441286 200.568083 135.105599 202.947886 135.105599 206.203019 C 135.105599 209.211965 134.394393 211.412013 132.97589 212.795347 C 131.553479 214.182589 129.376878 214.874255 126.43827 214.874255 L 122.178853 214.874255 Z M 181.247986 162.655359 L 178.645443 176.117463 L 164.061823 176.117463 L 161.533526 162.655359 L 149.25937 162.655359 L 164.350994 225.26489 L 178.71969 225.26489 L 193.811314 162.655359 Z M 166.082115 186.867608 L 176.625151 186.867608 L 171.353633 214.510837 Z M 213.596114 226.800625 C 217.351435 226.800625 220.610476 226.136312 223.381051 224.811594 C 226.147718 223.486876 228.664292 221.470491 230.926863 218.758532 L 225.436513 210.716439 C 222.021163 214.21385 218.359627 215.956695 214.463628 215.956695 C 212.392535 215.956695 210.755199 215.43306 209.551621 214.377975 C 208.348042 213.32289 207.746253 211.802786 207.746253 209.813755 C 207.746253 208.430421 208.011978 207.301089 208.539521 206.425759 C 209.070971 205.554337 210.008824 204.7259 211.356989 203.940448 C 212.705153 203.158903 214.725445 202.224958 217.421774 201.142518 C 222.52526 199.094872 226.280581 196.578299 228.687738 193.596706 C 231.094895 190.615114 232.298474 186.386958 232.298474 180.904423 C 232.298474 176.988885 231.501298 173.542274 229.914763 170.560682 C 228.32432 167.57909 226.038302 165.257902 223.05671 163.601028 C 220.07121 161.948061 216.530813 161.119624 212.439428 161.119624 C 208.348042 161.119624 204.725583 161.932431 201.572051 163.558043 C 198.418519 165.183656 195.710468 167.352442 193.447896 170.064401 L 199.442343 178.282342 C 201.36885 176.234695 203.353973 174.69896 205.401619 173.675137 C 207.445358 172.651313 209.67276 172.139402 212.079917 172.139402 C 214.533967 172.139402 216.472197 172.819346 217.890701 174.171418 C 219.313112 175.527397 220.024317 177.41092 220.024317 179.818077 C 220.024317 181.385073 219.758592 182.69416 219.227142 183.749245 C 218.699599 184.804331 217.785192 185.753907 216.483921 186.594067 C 215.182649 187.438136 213.306942 188.344727 210.852892 189.306027 C 205.31565 191.416197 201.380573 194.003109 199.043755 197.074579 C 196.710845 200.149957 195.542436 204.034233 195.542436 208.731316 C 195.542436 212.345959 196.312257 215.522937 197.8519 218.262251 C 199.39545 221.001564 201.536882 223.111735 204.280103 224.584946 C 207.023324 226.062065 210.129964 226.800625 213.596114 226.800625 Z M 265.658701 162.655359 L 265.658701 189.485782 L 250.637415 189.485782 L 250.637415 162.655359 L 238.797016 162.655359 L 238.797016 225.26489 L 250.637415 225.26489 L 250.637415 201.052641 L 265.658701 201.052641 L 265.658701 225.26489 L 277.4991 225.26489 L 277.4991 162.655359 Z M 317.576702 225.26489 L 316.349678 214.6945 L 298.729757 214.6945 L 298.729757 199.696661 L 314.110553 199.696661 L 314.110553 189.306027 L 298.729757 189.306027 L 298.729757 173.315626 L 317.576702 173.315626 L 317.576702 162.655359 L 286.889357 162.655359 L 286.889357 225.26489 Z M 338.807359 225.26489 C 346.654066 225.26489 352.945499 223.049211 357.689474 218.621761 C 362.429542 214.198219 364.801529 206.08188 364.801529 194.27665 C 364.801529 182.651175 362.492065 174.47622 357.86923 169.747876 C 353.246394 165.019531 347.255855 162.655359 339.889798 162.655359 L 324.868513 162.655359 L 324.868513 225.26489 Z M 336.71282 214.510837 L 336.71282 173.405504 L 340.612727 173.405504 C 344.508726 173.405504 347.47078 174.925608 349.49498 177.969724 C 351.515273 181.009932 352.527373 186.445574 352.527373 194.27665 C 352.527373 199.634138 352.019369 203.791954 351.007269 206.742285 C 349.999076 209.692615 348.627466 211.728539 346.892437 212.84224 C 345.161316 213.955941 343.019884 214.510837 340.468141 214.510837 Z M 415.34792 162.655359 L 412.749285 176.117463 L 398.161757 176.117463 L 395.63346 162.655359 L 383.359304 162.655359 L 398.450928 225.26489 L 412.819624 225.26489 L 427.911248 162.655359 Z M 400.182049 186.867608 L 410.725084 186.867608 L 405.453567 214.510837 Z M 451.306783 226.800625 C 454.436869 226.800625 457.215259 226.226189 459.645863 225.081227 C 462.076466 223.940172 464.378115 222.220774 466.542993 219.934756 L 460.911965 211.533153 C 459.419215 212.975102 457.949911 214.061449 456.507962 214.784378 C 455.062104 215.507306 453.522462 215.866817 451.885126 215.866817 C 448.512761 215.866817 445.85551 214.092711 443.905556 210.536683 C 441.955603 206.984564 440.98258 201.502029 440.98258 194.092987 C 440.98258 186.805084 441.955603 181.400704 443.905556 177.875939 C 445.85551 174.355081 448.563562 172.592698 452.029712 172.592698 C 453.858526 172.592698 455.519308 173.030363 457.012058 173.901785 C 458.504808 174.777115 460.11479 176.023678 461.849818 177.653198 L 467.121336 169.15781 C 465.241722 166.809268 462.967427 164.882761 460.298453 163.378288 C 457.62557 161.869907 454.67524 161.119624 451.451369 161.119624 C 446.828533 161.119624 442.811394 162.381819 439.392137 164.914023 C 435.97288 167.442319 433.315628 171.189825 431.412568 176.160448 C 429.513414 181.131071 428.55993 187.109887 428.55993 194.092987 C 428.55993 200.90024 429.536861 206.773547 431.486814 211.712908 C 433.436768 216.652269 436.133096 220.399775 439.571892 222.959333 C 443.014596 225.518892 446.926226 226.800625 451.306783 226.800625 Z M 498.750442 162.655359 L 496.147899 176.117463 L 481.564279 176.117463 L 479.035982 162.655359 L 466.761826 162.655359 L 481.85345 225.26489 L 496.222146 225.26489 L 511.31377 162.655359 Z M 483.584571 186.867608 L 494.127606 186.867608 L 488.856089 214.510837 Z M 528.929783 225.26489 C 536.77649 225.26489 543.071831 223.049211 547.815806 218.621761 C 552.555874 214.198219 554.927861 206.08188 554.927861 194.27665 C 554.927861 182.651175 552.61449 174.47622 547.995562 169.747876 C 543.372726 165.019531 537.378279 162.655359 530.01613 162.655359 L 514.994845 162.655359 L 514.994845 225.26489 Z M 526.839152 214.510837 L 526.839152 173.405504 L 530.735151 173.405504 C 534.635058 173.405504 537.597112 174.925608 539.617404 177.969724 C 541.641605 181.009932 542.649797 186.445574 542.649797 194.27665 C 542.649797 199.634138 542.145701 203.791954 541.133601 206.742285 C 540.125408 209.692615 538.74989 211.728539 537.018769 212.84224 C 535.287648 213.955941 533.142308 214.510837 530.590565 214.510837 Z M 592.692092 225.26489 L 591.465067 214.6945 L 573.845146 214.6945 L 573.845146 199.696661 L 589.225942 199.696661 L 589.225942 189.306027 L 573.845146 189.306027 L 573.845146 173.315626 L 592.692092 173.315626 L 592.692092 162.655359 L 562.004747 162.655359 L 562.004747 225.26489 Z M 649.662779 162.655359 L 638.041212 162.655359 L 637.173697 187.137241 C 636.931419 192.979286 636.810279 198.192188 636.810279 202.768131 C 636.810279 206.261635 636.884526 209.575384 637.029112 212.705469 L 629.303544 169.247687 L 618.107919 169.247687 L 609.878256 212.705469 C 610.167427 207.465214 610.312013 202.525852 610.312013 197.887386 C 610.312013 194.397789 610.237766 190.751884 610.09318 186.957486 L 609.229574 162.655359 L 597.674438 162.655359 L 601.429759 225.26489 L 616.376798 225.26489 L 623.887441 182.799669 L 630.89008 225.26489 L 645.911365 225.26489 Z M 693.855213 225.26489 L 677.825735 186.144679 L 677.825735 162.655359 L 665.985336 162.655359 L 665.985336 186.054802 L 649.95195 225.26489 L 662.878696 225.26489 L 672.12046 197.70763 L 681.366132 225.26489 Z M 693.855213 225.26489 " transform="matrix(0.999623, 0, 0, -0.999623, 0, 841.676098)"/>
<path fill-rule="evenodd" fill="rgb(38.822937%, 17.64679%, 56.863403%)" fill-opacity="1" stroke-width="0.5" stroke-linecap="butt" stroke-linejoin="miter" stroke="rgb(38.822937%, 17.64679%, 56.863403%)" stroke-opacity="1" stroke-miterlimit="2.613126" d="M 726.078293 248.859718 C 873.333001 247.820264 930.565505 238.879395 1048.027737 328.815629 C 990.451353 101.792581 904.039885 145.219101 725.453057 140.154693 Z M 726.078293 248.859718 " transform="matrix(0.999623, 0, 0, -0.999623, 0, 841.676098)"/>
<path fill-rule="evenodd" fill="rgb(38.822937%, 17.64679%, 56.863403%)" fill-opacity="1" stroke-width="0.5" stroke-linecap="butt" stroke-linejoin="miter" stroke="rgb(38.822937%, 17.64679%, 56.863403%)" stroke-opacity="1" stroke-miterlimit="2.613126" d="M 989.767502 700.365795 C 1000.279275 552.853177 983.93718 387.197004 876.181731 277.280584 C 1114.431666 307.549803 1089.426149 516.812252 1103.18524 700.365795 Z M 989.767502 700.365795 " transform="matrix(0.999623, 0, 0, -0.999623, 0, 841.676098)"/>
<path fill-rule="evenodd" fill="rgb(38.822937%, 17.64679%, 56.863403%)" fill-opacity="1" stroke-width="0.5" stroke-linecap="butt" stroke-linejoin="miter" stroke="rgb(38.822937%, 17.64679%, 56.863403%)" stroke-opacity="1" stroke-miterlimit="2.613126" d="M 282.141475 650.851043 L 209.446112 572.634069 C 223.318527 562.829593 288.948727 454.550509 293.735687 404.051011 C 261.403191 382.886786 202.443474 365.872562 155.031076 381.417482 C 129.849712 389.670592 128.200653 424.097628 131.815296 442.694479 C 120.748626 434.390569 105.430354 413.742163 95.731387 392.003502 C 84.113728 365.954624 85.184443 339.612666 95.145228 318.897829 C 110.424423 287.116322 172.295394 279.640849 231.868624 278.738165 C 286.588463 277.913635 344.723651 288.09716 369.41655 339.905746 C 457.012058 260.367961 682.729927 399.908825 831.403138 352.410458 C 863.356585 345.216341 853.489586 299.070045 846.490855 276.401347 C 874.806212 302.825366 1003.979888 469.18493 903.266156 476.68385 C 844.599517 481.048776 697.598811 459.071744 577.06511 440.088028 C 476.136452 424.195321 392.331435 414.859771 384.965378 470.959036 L 384.8247 469.677303 C 373.629074 525.24121 325.282731 596.166374 282.141475 650.851043 Z M 282.141475 650.851043 " transform="matrix(0.999623, 0, 0, -0.999623, 0, 841.676098)"/>
<path fill-rule="evenodd" fill="rgb(100%, 78.039551%, 2.745056%)" fill-opacity="1" d="M 430.539062 316.703125 L 941.894531 334.234375 L 941.496094 274.589844 Z M 430.539062 316.703125 "/>
<path fill-rule="evenodd" fill="rgb(100%, 78.039551%, 2.745056%)" fill-opacity="1" d="M 409.320312 295.355469 L 899.285156 257.761719 L 903.0625 208.550781 C 842.464844 215.980469 434.554688 283.285156 409.320312 295.355469 "/>
<path fill-rule="evenodd" fill="rgb(100%, 78.039551%, 2.745056%)" fill-opacity="1" d="M 376.117188 260.070312 L 869.636719 192.742188 L 868.667969 139.644531 Z M 376.117188 260.070312 "/>
</svg>
